<?xml version="1.0" encoding="utf-8"?>
<!-- Generator: Adobe Illustrator 24.0.1, SVG Export Plug-In . SVG Version: 6.00 Build 0)  -->
<svg version="1.1" id="Capa_1" xmlns="http://www.w3.org/2000/svg" xmlns:xlink="http://www.w3.org/1999/xlink" x="0px" y="0px"
	 viewBox="0 0 38.7 38.3" style="enable-background:new 0 0 38.7 38.3;" xml:space="preserve">
<g>
	<path d="M35.4,10.4l-0.3-0.2c0,0-0.1,0-0.1,0l-0.1,0c0,0-0.1,0-0.1,0v0c0-0.1-0.1-0.1-0.2-0.1h0l-0.3,0l0,0l0,0L34.1,10V9.8l0-0.2
		l0.1-0.3c0,0,0,0,0,0l0-0.2c0-0.1-0.1-0.2-0.2-0.3c0,0,0,0-0.1,0l-0.4,0.1l-0.2,0L33,9l-0.1,0l-0.2-0.1l-0.1-0.2
		c0-0.1-0.1-0.1-0.1-0.1l-0.1,0l0,0l-0.3,0l-0.1,0c-0.1,0-0.1,0-0.2,0l-0.1,0l-0.2-0.1c-0.1,0-0.1,0-0.2,0L31,8.6l-0.1,0l-0.1,0h0
		l-0.2,0c0,0-0.1,0-0.1,0l-0.2,0.1l0,0L30,9.1l-0.1,0.1l-0.1,0l-0.4,0h-0.2c0,0-0.1,0-0.1,0l-0.2,0.1c0,0,0,0,0,0l-0.4,0.3
		c0,0,0,0,0,0.1l-0.1,0.1c0,0.1,0,0.1,0,0.2l0,0.1l0,0h-0.1l-0.1,0L27.8,10c0,0,0,0-0.1,0h-0.2c0,0-0.1,0-0.1,0l-0.1,0.1
		c0,0-0.1,0.1-0.1,0.1l-0.1,0.1L27,10.2c0,0,0,0-0.1,0l-0.1,0l-0.1-0.1l-0.1,0l-0.1-0.1l-0.1-0.2c0-0.1-0.1-0.2-0.2-0.2h-0.1
		l-0.3-0.1l-0.5-0.3l-0.1-0.1c0,0,0,0,0,0L24.9,9c0,0-0.1,0-0.1,0l-0.3,0c0,0,0,0,0,0l-0.6,0.2l-0.4-0.1c0,0-0.1,0-0.1,0l-0.2,0.1
		c0,0-0.1,0-0.1,0.1l0,0.1c0,0,0,0,0,0.1l-0.1,0.2l-0.2,0.2c0,0,0,0,0,0l-0.2,0.2L22.4,10l-0.1,0l-0.2,0H22l-0.2-0.2l-0.1-0.2
		l-0.1-0.5v0l0.2,0h0.1l0.1,0c0.1,0,0.2-0.1,0.2-0.3c0,0,0-0.1,0-0.1l-0.1-0.2L22,8.4c0,0,0,0,0-0.1l-0.1-0.1
		c-0.1-0.1-0.2-0.1-0.3-0.1l-0.1,0c0,0-0.1,0.1-0.1,0.1l-0.1,0.3c0,0,0,0.1,0,0.1v0.1c0,0,0,0-0.1,0l-0.2,0l-0.2,0l-0.5-0.4l0,0
		L20,8.2c0,0,0,0-0.1,0l-0.6-0.1h0c0,0,0-0.1,0-0.1l0,0c-0.1-0.1-0.2-0.1-0.3,0c0,0,0,0,0,0l-0.1,0.1l0,0C18.7,8,18.6,8,18.5,8h-0.1
		c-0.1,0-0.2,0.1-0.2,0.1l0,0.1c0,0,0,0,0,0l-0.1,0.3l-0.2,0.1l-0.6,0.1c-0.1,0-0.1,0-0.2,0.1l-0.1,0.2l-0.1,0l-0.5-0.1v0
		c0,0,0-0.1,0-0.1l-0.1-0.2l0,0l0.2-0.2c0.1,0,0.1-0.1,0.1-0.2l0-0.2c0-0.1,0-0.1-0.1-0.1l-0.2-0.2l0,0l0.1-0.1c0,0,0-0.1,0-0.1V7.3
		c0-0.1,0-0.1-0.1-0.2l0.1-0.2c0-0.1,0-0.2,0-0.2l-0.1-0.2l0-0.1l-0.1-0.3c0,0,0,0,0-0.1L16,5.9l-0.1-0.1l-0.2-0.3
		c0,0,0-0.1-0.1-0.1l-0.1-0.1l0,0c0-0.1,0-0.2-0.1-0.3L15.2,5h-1.3c0,0,0,0-0.1,0l-0.3,0.1l-0.1-0.1l-0.1-0.1l-0.1-0.2c0,0,0,0,0,0
		l-0.1-0.2c0,0,0,0,0-0.1l-0.2-0.2c0,0-0.1,0-0.1-0.1l-0.2-0.1l0,0l-0.8,0L11.6,4c0,0,0,0,0,0l-0.1,0c-0.1,0-0.2,0-0.2,0L11.1,4
		l-0.1-0.1l-0.1-0.1c0,0,0,0-0.1,0l-0.3-0.1l-0.4-0.3c0,0,0,0,0,0l-0.2,0c0,0,0,0-0.1,0l-0.2,0l-0.1,0L9.2,3.2c0,0-0.1,0-0.1,0H8.9
		l-0.3,0c0,0-0.1,0-0.1,0L8.3,3.3c-0.1,0-0.1,0.1-0.1,0.2l0,0.2v0.1l0,0.2L8,4.3c0,0.1,0,0.2,0,0.2l0,0L8,4.7c0,0.1,0,0.1,0,0.2
		S8,5,8.1,5l0.1,0l0.1,0.1l0,0.1v0.1c0,0.1,0,0.2,0.1,0.3l0.1,0.1l0.1,0.2L8.6,6l0.1,0.4c0,0,0,0,0,0l0.1,0.1c0,0,0,0,0.1,0.1L9,6.7
		c0,0,0,0,0,0l0.1,0c0,0,0,0,0,0l0.2,0v0l0,0.3L9.1,7.5l0,0c0,0,0,0.1-0.1,0.1L8.9,7.8c0,0,0,0.1,0,0.1V8c0,0-0.1,0-0.1,0l-0.1,0
		c0,0-0.1,0.1-0.1,0.2l0,0.1v0.1l0,0.1c0,0,0,0,0,0l0,0.1l0,0v0.1c0,0,0,0.1,0,0.1L8.8,9c0,0,0,0,0,0L9,9.3l0.1,0.4l0,0.4l0,0.1v0.3
		l0,0.1l0,0l0,0.1V11l0,0.3v0L9,11.6l-0.1,0.2c0,0,0,0,0,0l0,0.1v0l-0.1,0.4l-0.1,0.4v0.1l0,0.2l-0.1,0.5l0,0l0,0
		c-0.1,0-0.1,0.1-0.1,0.1c0,0,0,0,0,0l-0.1,0.5l0,0.1l-0.1,0.3c0,0,0,0.1,0,0.1l0,0.1l0,0.1l0,0l0,0C8,15,8,15,8,15l-0.1,0.1
		c0,0,0,0,0,0.1l0,0.1l0,0h0c0,0,0,0-0.1,0l-0.2,0.1c0,0,0,0-0.1,0.1l-0.1,0.2c0,0,0,0.1,0,0.1v0.1c0,0.1,0,0.1,0.1,0.2l0.1,0.1
		c0,0,0,0,0.1,0h0l0,0l0,0.4l0,0l-0.1,0.1l-0.2,0.1c0,0-0.1,0-0.1,0.1l-0.1,0.1l0,0.1l0,0l-0.2,0l-0.1,0c0,0-0.1,0-0.1,0.1l-0.1,0.1
		c0,0,0,0,0,0L6.3,18l0,0L6,18.1c0,0,0,0-0.1,0l-0.1,0.1c0,0-0.1,0-0.1,0l-0.1,0.1c0,0,0,0.1,0,0.1c0,0,0,0-0.1,0l-0.1,0.1l0,0
		l-0.1,0.2L5.1,19c0,0,0,0,0,0l-0.2,0.2c0,0,0,0.1,0,0.2l0,0.2c0,0,0,0,0,0.1L5,20l0,0.3c0,0,0,0,0,0l0.1,0.1c0,0,0,0,0,0l0,0.1
		c0,0,0.1,0.1,0.1,0.1l0.1,0c0,0,0,0,0.1,0l0.3,0h0.1l0.1,0v0.1c0,0,0,0,0,0c0,0,0,0,0,0L6,21.1v0l-0.2,0.3l0,0l0,0.1c0,0,0,0,0,0
		l-0.1,0.1l-0.3,0.1c0,0,0,0-0.1,0l-0.1,0.1c0,0-0.1,0.1-0.1,0.1l0,0.1c0,0,0,0.1,0,0.1l0,0.2l0,0.2L5,22.9l-0.1,0.2
		c0,0.1-0.1,0.1-0.1,0.2l0.1,0.3c0,0.1,0.1,0.2,0.1,0.2l0.2,0.1l0.1,0.1l0,0.1l0,0.1l-0.1,0.3l-0.1,0.2c0,0,0,0.1,0,0.1l0,0.2l0,0.1
		l0,0.2l-0.3,0.1c0,0-0.1,0.1-0.1,0.1l-0.1,0.2c0,0,0,0,0,0.1l0,0.2l-0.1,0.2l0,0l-0.1,0.1l-0.2,0c0,0-0.1,0-0.1,0.1l-0.1,0.1
		l-0.1,0c0,0,0,0-0.1,0l-0.1,0c0,0-0.1,0.1-0.1,0.1l0,0.1c0,0,0,0,0,0.1l0,0.2c0,0,0,0,0,0v0.1l0,0.1c0,0,0,0.1,0,0.1l0,0v0L3.9,28
		c0,0,0,0,0,0c0,0,0,0.1,0.1,0.1l0.2,0.1c0,0,0,0,0,0l0.1,0.1l0.1,0.1l0.1,0.4l0,0.2l-0.1,0.2l-0.1,0.2l0,0.1c0,0,0,0,0,0l-0.1,0.3
		v0l0,0.1c0,0,0,0.1,0,0.1l0.1,0.2l0,0.2c0,0,0,0,0,0.1l0.1,0.3l0,0.1L4,31.2c0,0,0,0,0,0.1l-0.1,0.1l-0.5,0.3l0,0l0,0l0,0
		c-0.1,0.1-0.1,0.1-0.1,0.2l0,0.2c0,0,0,0,0,0.1c0,0,0.1,0.1,0.1,0.1l0.3,0.1c0,0,0.1,0,0.1,0l0,0l0,0.1c0,0,0,0,0,0.1l0.1,0.1
		c0,0,0,0,0.1,0.1l0.2,0.1l0,0l0,0.1c0,0,0,0.1,0,0.1v0.1c0,0,0,0.1,0,0.1l0.1,0.2c0,0,0,0,0.1,0.1l0.1,0.1c0,0,0,0,0,0l0.2,0.1
		c0,0,0,0,0,0L5.6,34l0.3,0.1l0.1,0.1v0c0,0,0,0.1,0,0.1l0,0.1c0,0,0,0,0,0l0.1,0.1l0,0l0.1,0.1c0,0,0,0,0.1,0L6.9,35l0,0
		C6.9,35,7,35.1,7,35.1h0c0.1,0,0.1-0.1,0.2-0.1l0.2-0.6l0.1-0.1l0.2,0.4c0,0.1,0.1,0.1,0.2,0.1l0.3,0c0,0,0,0,0,0l0.3-0.1
		c0,0,0,0,0.1,0L9,34.3c0,0,0,0,0.1,0l0.5-0.8l0.2-0.2l0.6-0.2c0.1,0,0.1,0,0.1-0.1l0.2-0.4c0,0,0-0.1,0-0.1v-0.3
		c0-0.1-0.1-0.2-0.2-0.2l-0.2-0.1c0,0-0.1,0-0.1,0l-0.2-0.1l0,0L10,31.4l0,0l-0.1-0.1c0,0,0,0-0.1,0l-0.1-0.1c0,0,0,0-0.1,0l-0.2,0
		c-0.1,0-0.2,0-0.2,0.1v0l0,0l0.1-0.2l1.1-1.1c0,0,0,0,0,0l0.5-0.7l1.1-1.1l0.2-0.1l0,0l0.4-0.2l0.4-0.1l0.4,0l0.2,0.1
		c0.1,0,0.1,0.1,0.2,0l0.1,0c0,0,0.1,0,0.1-0.1l0-0.1c0,0,0,0,0,0l0-0.1l0.1-0.1l0.1-0.2l0.7-0.2h0l2.5-0.9l0.8-0.1h0l2-0.6h0.3
		c0,0,0,0,0.1,0l0.1,0c0,0,0,0,0,0l0.2-0.1l0.6-0.2l0.7-0.1h0l0.4-0.1c0,0,0,0,0,0l0.2-0.1l0.5-0.3l0,0l0.2-0.2l0.1-0.1c0,0,0,0,0,0
		l0.3-0.4l0,0l0.5-0.8l0.3-0.3l0.3-0.2l0.7-0.3l0,0l0.6-0.4c0,0,0,0,0,0l0.2-0.2l0.2-0.1l1.2-0.5l0.6-0.3l1.3-0.5
		c0,0,0.1-0.1,0.1-0.1l0.1-0.2h0l0.1,0c0.1,0,0.1-0.1,0.2-0.1l0-0.1l0.1-0.1l0.1,0l0.5-0.1l0.3-0.1c0,0,0.1,0,0.1-0.1l0.2-0.3
		l0.9-0.7l0.3-0.2c0.1,0,0.1-0.1,0.1-0.1l0.1-0.3l0.3-0.2l0.3,0c0.1,0,0.1,0,0.2-0.1c0,0,0,0,0,0l0.3-0.4l0.1-0.1l0,0c0,0,0,0,0-0.1
		l0.1-0.3l0.3-0.4c0,0,0-0.1,0-0.1l0-0.3c0-0.1,0-0.1,0-0.2l-0.1-0.1c0,0,0,0,0,0l-0.1-0.1V15l-0.1-0.5l0-0.1l0.1-0.1
		c0,0,0.1-0.1,0.1-0.2v-0.2c0,0,0-0.1,0-0.1l-0.2-0.3l0-0.1L34,13.3c0,0,0,0-0.1,0l-0.3-0.2L33.5,13l0-0.2l0-0.8l0.1-0.2l0.1-0.1
		c0,0,0,0,0.1,0.1l0.3,0.1c0,0,0.1,0,0.1,0l0.3-0.1l0.1,0c0.1,0,0.2,0,0.3-0.1l0-0.1l0,0c0,0,0,0,0.1-0.1l0.1-0.1c0,0,0,0,0-0.1
		l0-0.2l0-0.1l0.2-0.5v0C35.5,10.6,35.5,10.5,35.4,10.4z M8.6,33.8l-0.1,0.1l-0.1-0.1c0,0-0.1,0-0.1,0H8.1l0.6-0.2h0.1L8.6,33.8z"/>
</g>
</svg>
